<svg width="2500" height="2500" viewBox="0 0 2500 2500" fill="none" xmlns="http://www.w3.org/2000/svg">
<rect width="2500" height="2500" fill="#E5E5E5"/>
<rect width="2500" height="2500" fill="white"/>
<path d="M1129.87 1874.5C1128.43 1872.17 1150.27 1571.06 1153.05 1554.92C1156.93 1532.36 1166.56 1494.01 1174.45 1469.65C1207.85 1366.48 1257.87 1281.37 1326.38 1211.1C1353.66 1183.12 1368.78 1170.26 1415.05 1135.69C1588.44 1006.12 1731.32 910.602 1843.68 849.135C1873.4 832.88 1873.53 831.324 1844.78 836.352C1786.67 846.514 1720.04 864.828 1659.71 887.217C1521.4 938.55 1413.3 1012.05 1345.89 1100.61C1342.39 1105.2 1339.05 1108.67 1338.48 1108.32C1336.49 1107.09 1335.59 1076.24 1337.03 1058.26C1343.17 981.071 1374.62 913.745 1430.49 858.157C1502.33 786.682 1613.7 736.237 1751.05 712.964C1856.1 695.162 1937.43 684.164 2012.38 677.627C2151.69 665.476 2263.05 646.017 2300.19 627.337C2304.48 625.177 2308.74 623.699 2309.67 624.052C2310.59 624.405 2312.47 630.296 2313.86 637.142C2317.68 655.982 2317.41 700.044 2313.35 720.313C2302.74 773.335 2280.5 822.181 2243.44 873.842C2211.38 918.53 2159.84 971.345 2105.67 1015.02C2096.89 1022.09 2084.91 1032.26 2079.05 1037.63C2045.68 1068.14 2006.42 1092.16 1951.43 1115.73C1912.72 1132.31 1846.97 1152.05 1799.05 1161.47C1781.16 1164.98 1716.4 1171.35 1635.71 1177.53C1557.79 1183.5 1526.5 1185.09 1471.71 1185.87L1417.71 1186.64L1406.06 1194.47C1369.41 1219.11 1338.09 1251.28 1324.34 1278.4C1317.49 1291.9 1314.86 1301.78 1309.78 1332.92C1296.52 1414.3 1290.79 1479.53 1289.5 1563.59C1288.55 1625.26 1289.55 1648.74 1298.39 1772.81C1302.05 1824.17 1305.05 1868.31 1305.05 1870.89V1875.59H1217.79C1169.8 1875.59 1130.24 1875.1 1129.87 1874.5V1874.5ZM1114.38 1301.36C978.958 1297.2 830.323 1273.87 712.45 1238.28C576.91 1197.36 471.685 1143.65 383.047 1070.15C365.207 1055.35 323.062 1013.07 308.287 995.14C250.549 925.074 213.354 848.898 193.273 759.589C188.68 739.161 183.074 705.117 184.129 704.062C186.198 701.993 303.529 720.951 371.047 734.263C673.509 793.898 910.242 881.768 1055.05 988.147C1080.22 1006.64 1100.93 1024.51 1123.05 1046.82C1155.05 1079.11 1175.76 1106.98 1192.95 1140.92C1202.37 1159.51 1212.23 1184.04 1211.35 1186.68C1211.07 1187.51 1207.59 1185.17 1203.62 1181.49C1151.1 1132.9 1035.52 1074.42 884.381 1019.96C848.047 1006.86 789.804 987.589 786.575 987.589C781.725 987.589 783.348 990.01 792.613 996.596C860.4 1044.79 950.029 1116.39 1015.71 1174.82C1065.93 1219.49 1142.11 1294.35 1143.48 1300.36C1143.82 1301.88 1142.09 1302.2 1134.81 1301.98C1129.81 1301.83 1120.61 1301.56 1114.38 1301.36V1301.36Z" fill="#00CDBE"/>
</svg>
